<svg xmlns="http://www.w3.org/2000/svg" width="256" height="256" viewBox="0 0 100 100"><rect width="100" height="100" rx="20" fill="#5b4ea0"></rect><path fill="#fff" d="M36.05 74.75L32.00 62.78L7.88 62.78Q7.25 64.58 6.53 66.69Q5.81 68.81 5.13 70.83Q4.46 72.86 3.83 74.61Q3.20 76.37 2.84 77.54L2.84 77.54Q1.58 78.08-0.13 78.08L-0.13 78.08Q-1.57 78.08-2.69 77.31Q-3.82 76.55-3.82 74.84L-3.82 74.84Q-3.82 74.03-3.55 73.17Q-3.28 72.32-2.92 71.33L-2.92 71.33Q-1.57 67.55 0.54 61.61Q2.66 55.67 5.13 48.97Q7.61 42.26 10.18 35.47Q12.74 28.67 14.90 23.27L14.90 23.27Q15.62 22.91 17.06 22.55Q18.50 22.19 20.03 22.19L20.03 22.19Q21.83 22.19 23.50 22.73Q25.16 23.27 25.61 24.53L25.61 24.53Q27.77 29.75 30.25 36.45Q32.72 43.16 35.24 50.18Q37.76 57.20 40.05 63.99Q42.35 70.79 44.15 76.28L44.15 76.28Q43.43 77.09 42.44 77.58Q41.45 78.08 40.19 78.08L40.19 78.08Q38.48 78.08 37.58 77.31Q36.68 76.55 36.05 74.75L36.05 74.75ZM20.30 28.31L19.94 28.31Q18.95 31.01 17.69 34.48Q16.43 37.94 15.08 41.72Q13.73 45.50 12.38 49.37Q11.03 53.24 9.86 56.75L9.86 56.75L30.11 56.75Q28.76 52.70 27.32 48.61Q25.88 44.51 24.57 40.73Q23.27 36.95 22.14 33.76Q21.02 30.56 20.30 28.31L20.30 28.31ZM103.82 50L103.82 50Q103.82 57.02 101.84 62.38Q99.86 67.73 96.35 71.28Q92.84 74.84 88.07 76.69Q83.30 78.53 77.72 78.53L77.72 78.53Q72.14 78.53 67.37 76.69Q62.60 74.84 59.09 71.28Q55.58 67.73 53.60 62.38Q51.62 57.02 51.62 50L51.62 50Q51.62 42.98 53.65 37.67Q55.67 32.36 59.18 28.76Q62.69 25.16 67.46 23.32Q72.23 21.47 77.72 21.47L77.72 21.47Q83.21 21.47 87.98 23.32Q92.75 25.16 96.26 28.76Q99.77 32.36 101.80 37.67Q103.82 42.98 103.82 50ZM96.35 50L96.35 50Q96.35 39.20 91.27 33.44Q86.18 27.68 77.72 27.68L77.72 27.68Q73.49 27.68 70.07 29.16Q66.65 30.65 64.22 33.48Q61.79 36.32 60.49 40.46Q59.18 44.60 59.18 50L59.18 50Q59.18 60.80 64.22 66.56Q69.26 72.32 77.72 72.32L77.72 72.32Q86.27 72.32 91.31 66.56Q96.35 60.80 96.35 50Z"></path></svg>