<svg width="29" height="37" viewBox="0 0 29 37" fill="none" xmlns="http://www.w3.org/2000/svg">
<path d="M25.5609 25.2568L19.9474 21.6082L22.0638 17.7282C22.5571 16.8222 22.8159 15.8071 22.8167 14.7754V8.63333C22.8167 6.34363 21.9071 4.14771 20.2881 2.52864C18.669 0.909581 16.4731 0 14.1834 0C11.8937 0 9.69773 0.909581 8.07867 2.52864C6.4596 4.14771 5.55002 6.34363 5.55002 8.63333V14.7754C5.55079 15.8071 5.80963 16.8222 6.30297 17.7283L8.41929 21.6082L2.80585 25.2568C1.94313 25.8153 1.23425 26.5812 0.744075 27.4845C0.253896 28.3878 -0.00192816 29.3996 1.09419e-05 30.4273V37H28.3667V30.4273C28.3686 29.3996 28.1128 28.3878 27.6226 27.4845C27.1325 26.5812 26.4236 25.8153 25.5609 25.2568ZM25.9 34.5333H2.46668V30.4273C2.46553 29.8106 2.61903 29.2035 2.91315 28.6616C3.20728 28.1196 3.63262 27.6601 4.15026 27.325L11.6782 22.4318L8.46847 16.5472C8.17247 16.0035 8.01716 15.3944 8.01669 14.7754V8.63333C8.01669 6.99783 8.66639 5.42932 9.82286 4.27284C10.9793 3.11637 12.5479 2.46667 14.1834 2.46667C15.8189 2.46667 17.3874 3.11637 18.5439 4.27284C19.7003 5.42932 20.35 6.99783 20.35 8.63333V14.7754C20.3496 15.3944 20.1943 16.0035 19.8983 16.5472L16.6886 22.4318L24.2167 27.325C24.7343 27.6601 25.1596 28.1196 25.4537 28.6616C25.7477 29.2036 25.9012 29.8106 25.9 30.4273V34.5333Z" fill="white"/>
</svg>
